<?xml version="1.0" encoding="iso-8859-1"?>
<!-- Generator: Adobe Illustrator 19.0.0, SVG Export Plug-In . SVG Version: 6.00 Build 0)  -->
<svg version="1.1" id="Capa_1" xmlns="http://www.w3.org/2000/svg" xmlns:xlink="http://www.w3.org/1999/xlink" x="0px" y="0px"
	 viewBox="0 0 490.667 490.667" style="enable-background:new 0 0 490.667 490.667;" xml:space="preserve">
<path style="fill:#607D8B;" d="M224,384h42.667c5.891,0,10.667,4.776,10.667,10.667v42.667c0,5.891-4.776,10.667-10.667,10.667H224
	c-5.891,0-10.667-4.776-10.667-10.667v-42.667C213.333,388.776,218.109,384,224,384z"/>
<g>
	<path style="fill:#455A64;" d="M352,426.667H138.667c-29.455,0-53.333,23.878-53.333,53.333c0,5.891,4.776,10.667,10.667,10.667
		h298.667c5.891,0,10.667-4.776,10.667-10.667C405.333,450.545,381.455,426.667,352,426.667z"/>
	<path style="fill:#455A64;" d="M53.333,0h384c29.455,0,53.333,23.878,53.333,53.333V352c0,29.455-23.878,53.333-53.333,53.333h-384
		C23.878,405.333,0,381.455,0,352V53.333C0,23.878,23.878,0,53.333,0z"/>
</g>
<path style="fill:#ECEFF1;" d="M53.333,21.333h384c17.673,0,32,14.327,32,32V320h-448V53.333
	C21.333,35.66,35.66,21.333,53.333,21.333z"/>
<path style="fill:#2196F3;" d="M381.739,89.429c-2.022-2.586-5.122-4.097-8.405-4.096h-224c-5.891-0.001-10.668,4.773-10.669,10.664
	c0,0.717,0.072,1.433,0.215,2.136L160.213,204.8c1.014,4.967,5.384,8.534,10.453,8.533c0.419,0.026,0.839,0.026,1.259,0L353.259,192
	c4.396-0.522,8.012-3.706,9.088-8l21.333-85.333C384.505,95.453,383.787,92.039,381.739,89.429z"/>
<g>
	<path style="fill:#1976D2;" d="M149.013,72.085c-1.185-4.75-5.451-8.084-10.347-8.085H96c-5.891,0-10.667,4.776-10.667,10.667
		S90.109,85.333,96,85.333h34.325l40.661,162.581c1.558,5.681,7.426,9.024,13.108,7.466c5.496-1.507,8.837-7.069,7.586-12.629
		L149.013,72.085z"/>
	<circle style="fill:#1976D2;" cx="224" cy="266.667" r="32"/>
	<circle style="fill:#1976D2;" cx="309.333" cy="266.667" r="32"/>
</g>
<g>
</g>
<g>
</g>
<g>
</g>
<g>
</g>
<g>
</g>
<g>
</g>
<g>
</g>
<g>
</g>
<g>
</g>
<g>
</g>
<g>
</g>
<g>
</g>
<g>
</g>
<g>
</g>
<g>
</g>
</svg>
