<?xml version="1.0" encoding="iso-8859-1"?>
<!-- Generator: Adobe Illustrator 19.0.0, SVG Export Plug-In . SVG Version: 6.00 Build 0)  -->
<svg version="1.1" id="Capa_1" xmlns="http://www.w3.org/2000/svg" xmlns:xlink="http://www.w3.org/1999/xlink" x="0px" y="0px"
	 viewBox="0 0 512 512" style="enable-background:new 0 0 512 512;" xml:space="preserve">
<path style="fill:#FFC107;" d="M416,64H96c-5.891,0-10.667,4.776-10.667,10.667V480c0,17.673,14.327,32,32,32h277.333
	c17.673,0,32-14.327,32-32V74.667C426.667,68.776,421.891,64,416,64z"/>
<path style="fill:#455A64;" d="M330.667,170.667c-5.891,0-10.667-4.776-10.667-10.667V53.333c0-17.673-14.327-32-32-32h-64
	c-17.673,0-32,14.327-32,32V160c0,5.891-4.776,10.667-10.667,10.667c-5.891,0-10.667-4.776-10.667-10.667V53.333
	C170.667,23.878,194.545,0,224,0h64c29.455,0,53.333,23.878,53.333,53.333V160C341.333,165.891,336.558,170.667,330.667,170.667z"/>
<rect x="85.333" y="405.333" style="fill:#FFA000;" width="341.333" height="21.333"/>
<g>
</g>
<g>
</g>
<g>
</g>
<g>
</g>
<g>
</g>
<g>
</g>
<g>
</g>
<g>
</g>
<g>
</g>
<g>
</g>
<g>
</g>
<g>
</g>
<g>
</g>
<g>
</g>
<g>
</g>
</svg>
