<?xml version="1.0" encoding="iso-8859-1"?>
<!-- Generator: Adobe Illustrator 19.0.0, SVG Export Plug-In . SVG Version: 6.00 Build 0)  -->
<svg version="1.1" id="Capa_1" xmlns="http://www.w3.org/2000/svg" xmlns:xlink="http://www.w3.org/1999/xlink" x="0px" y="0px"
	 viewBox="0 0 511.971 511.971" style="enable-background:new 0 0 511.971 511.971;" xml:space="preserve">
<path style="fill:#607D8B;" d="M486.414,176.391l-89.6-74.667c-12.726-10.575-28.744-16.377-45.291-16.405H138.681
	c-23.673-0.076-45.331,13.31-55.851,34.517L6.606,272.284c-15.423,30.845-2.92,68.353,27.925,83.776
	c8.671,4.335,18.232,6.592,27.926,6.592h383.04c12.133,0.039,23.233-6.819,28.629-17.685l20.779-41.536
	c11.21-22.537,17.051-47.363,17.067-72.533C511.985,209.832,502.617,189.853,486.414,176.391z"/>
<path style="fill:#ECEFF1;" d="M465.337,215.644L358.67,130.311c-4.581-3.703-11.298-2.992-15.001,1.59
	c-0.987,1.221-1.693,2.645-2.066,4.17l-21.333,85.333c-1.426,5.716,2.052,11.505,7.768,12.931c0.864,0.216,1.752,0.322,2.643,0.317
	h128c5.891,0.004,10.67-4.768,10.674-10.659C469.357,220.744,467.878,217.67,465.337,215.644z"/>
<circle style="fill:#FAFAFA;" cx="138.681" cy="351.986" r="64"/>
<path style="fill:#455A64;" d="M138.681,426.652c-41.237,0-74.667-33.429-74.667-74.667s33.429-74.667,74.667-74.667
	s74.667,33.429,74.667,74.667S179.918,426.652,138.681,426.652z M138.681,298.652c-29.455,0-53.333,23.878-53.333,53.333
	c0,29.455,23.878,53.333,53.333,53.333s53.333-23.878,53.333-53.333C192.014,322.531,168.136,298.652,138.681,298.652z"/>
<circle style="fill:#FAFAFA;" cx="373.347" cy="351.986" r="64"/>
<path style="fill:#455A64;" d="M373.347,426.652c-41.237,0-74.667-33.429-74.667-74.667s33.429-74.667,74.667-74.667
	s74.667,33.429,74.667,74.667S414.585,426.652,373.347,426.652z M373.347,298.652c-29.455,0-53.333,23.878-53.333,53.333
	c0,29.455,23.878,53.333,53.333,53.333s53.333-23.878,53.333-53.333C426.681,322.531,402.803,298.652,373.347,298.652z"/>
<g>
	<path style="fill:#FFC107;" d="M160.014,127.986H10.681c-5.891,0-10.667,4.776-10.667,10.667c0,5.891,4.776,10.667,10.667,10.667
		h149.333c5.891,0,10.667-4.776,10.667-10.667C170.681,132.761,165.905,127.986,160.014,127.986z"/>
	<path style="fill:#FFC107;" d="M117.347,191.986H10.681c-5.891,0-10.667,4.776-10.667,10.667c0,5.891,4.776,10.667,10.667,10.667
		h106.667c5.891,0,10.667-4.776,10.667-10.667C128.014,196.761,123.238,191.986,117.347,191.986z"/>
	<path style="fill:#FFC107;" d="M74.681,255.986h-64c-5.891,0-10.667,4.776-10.667,10.667c0,5.891,4.776,10.667,10.667,10.667h64
		c5.891,0,10.667-4.776,10.667-10.667C85.347,260.761,80.572,255.986,74.681,255.986z"/>
</g>
<g>
</g>
<g>
</g>
<g>
</g>
<g>
</g>
<g>
</g>
<g>
</g>
<g>
</g>
<g>
</g>
<g>
</g>
<g>
</g>
<g>
</g>
<g>
</g>
<g>
</g>
<g>
</g>
<g>
</g>
</svg>
