<?xml version="1.0" encoding="iso-8859-1"?>
<!-- Generator: Adobe Illustrator 19.0.0, SVG Export Plug-In . SVG Version: 6.00 Build 0)  -->
<svg version="1.1" id="Capa_1" xmlns="http://www.w3.org/2000/svg" xmlns:xlink="http://www.w3.org/1999/xlink" x="0px" y="0px"
	 viewBox="0 0 512.015 512.015" style="enable-background:new 0 0 512.015 512.015;" xml:space="preserve">
<path style="fill:#FFC107;" d="M501.341,74.682v362.667c0.025,4.818-3.227,9.038-7.893,10.24l-234.667,64
	c-0.905,0.246-1.836,0.389-2.773,0.427v-512c0.945-0.065,1.892,0.081,2.773,0.427l71.893,19.627l106.667,29.013l56.107,15.36
	C498.114,65.644,501.366,69.863,501.341,74.682z"/>
<path style="fill:#FFA000;" d="M256.007,0.015v512c-0.938-0.038-1.868-0.181-2.773-0.427l-234.667-64
	c-4.666-1.202-7.919-5.422-7.893-10.24V74.682c-0.025-4.818,3.227-9.038,7.893-10.24l56.107-15.36l106.667-29.013l71.893-19.627
	C254.116,0.096,255.063-0.05,256.007,0.015z"/>
<g>
	<path style="fill:#FAFAFA;" d="M170.674,426.682c-5.891,0-10.667-4.776-10.667-10.667v-64c0-5.891,4.776-10.667,10.667-10.667
		s10.667,4.776,10.667,10.667v64C181.341,421.906,176.565,426.682,170.674,426.682z"/>
	<path style="fill:#FAFAFA;" d="M202.674,394.682c-2.831,0.005-5.548-1.115-7.552-3.115l-24.448-24.469l-24.448,24.469
		c-4.237,4.093-10.99,3.975-15.083-0.262c-3.993-4.134-3.993-10.687,0-14.821l32-32c4.165-4.164,10.917-4.164,15.083,0l32,32
		c4.159,4.172,4.149,10.926-0.024,15.085C208.204,393.562,205.497,394.681,202.674,394.682z"/>
</g>
<path style="fill:#F44336;" d="M298.674,426.682c-5.891-0.013-10.656-4.8-10.642-10.691c0.01-4.574,2.936-8.632,7.272-10.088
	l64-21.333c5.655-1.649,11.577,1.598,13.227,7.253c1.562,5.354-1.265,11.007-6.485,12.971l-64,21.333
	C300.958,426.492,299.82,426.679,298.674,426.682z"/>
<path style="fill:#607D8B;" d="M437.341,49.082v196.267c0.037,2.829-1.125,5.542-3.2,7.467l-21.333,21.333
	c-3.922,4.124-10.444,4.288-14.567,0.366c-0.125-0.119-0.247-0.241-0.366-0.366l-13.867-13.653l-13.867,13.653
	c-3.922,4.124-10.444,4.288-14.567,0.366c-0.125-0.119-0.247-0.241-0.366-0.366l-21.333-21.333c-2.075-1.924-3.237-4.637-3.2-7.467
	V20.068L437.341,49.082z"/>
<path style="fill:#455A64;" d="M181.341,20.068v225.28c0.037,2.829-1.125,5.542-3.2,7.467l-21.333,21.333
	c-3.922,4.124-10.444,4.288-14.567,0.366c-0.125-0.119-0.247-0.241-0.366-0.366l-13.867-13.653l-13.867,13.653
	c-3.922,4.124-10.444,4.288-14.567,0.366c-0.125-0.119-0.247-0.241-0.366-0.366l-21.333-21.333c-2.075-1.924-3.237-4.637-3.2-7.467
	V49.082L181.341,20.068z"/>
<g>
</g>
<g>
</g>
<g>
</g>
<g>
</g>
<g>
</g>
<g>
</g>
<g>
</g>
<g>
</g>
<g>
</g>
<g>
</g>
<g>
</g>
<g>
</g>
<g>
</g>
<g>
</g>
<g>
</g>
</svg>
