<?xml version="1.0" encoding="iso-8859-1"?>
<!-- Generator: Adobe Illustrator 19.0.0, SVG Export Plug-In . SVG Version: 6.00 Build 0)  -->
<svg version="1.1" id="Capa_1" xmlns="http://www.w3.org/2000/svg" xmlns:xlink="http://www.w3.org/1999/xlink" x="0px" y="0px"
	 viewBox="0 0 512 512" style="enable-background:new 0 0 512 512;" xml:space="preserve">
<path style="fill:#607D8B;" d="M224,394.667h42.667c5.891,0,10.667,4.776,10.667,10.667V448c0,5.891-4.776,10.667-10.667,10.667H224
	c-5.891,0-10.667-4.776-10.667-10.667v-42.667C213.333,399.442,218.109,394.667,224,394.667z"/>
<g>
	<path style="fill:#455A64;" d="M352,437.333H138.667c-29.455,0-53.333,23.878-53.333,53.333c0,5.891,4.776,10.667,10.667,10.667
		h298.667c5.891,0,10.667-4.776,10.667-10.667C405.333,461.211,381.455,437.333,352,437.333z"/>
	<path style="fill:#455A64;" d="M53.333,10.667h384c29.455,0,53.333,23.878,53.333,53.333v298.667
		c0,29.455-23.878,53.333-53.333,53.333h-384C23.878,416,0,392.122,0,362.667V64C0,34.545,23.878,10.667,53.333,10.667z"/>
</g>
<path style="fill:#ECEFF1;" d="M53.333,32h384c17.673,0,32,14.327,32,32v266.667h-448V64C21.333,46.327,35.66,32,53.333,32z"/>
<path style="fill:#FFC107;" d="M381.739,100.096c-2.022-2.586-5.122-4.097-8.405-4.096h-224
	c-5.891-0.001-10.668,4.773-10.669,10.664c0,0.717,0.072,1.433,0.215,2.136l21.333,106.667c1.014,4.967,5.384,8.534,10.453,8.533
	c0.419,0.026,0.839,0.026,1.259,0l181.333-21.333c4.396-0.522,8.012-3.706,9.088-8l21.333-85.333
	C384.505,106.12,383.787,102.706,381.739,100.096z"/>
<g>
	<path style="fill:#607D8B;" d="M149.013,82.752c-1.185-4.75-5.451-8.084-10.347-8.085H96c-5.891,0-10.667,4.776-10.667,10.667
		C85.333,91.224,90.109,96,96,96h34.325l40.661,162.581c1.558,5.681,7.426,9.024,13.108,7.466c5.496-1.507,8.837-7.069,7.586-12.629
		L149.013,82.752z"/>
	<circle style="fill:#607D8B;" cx="224" cy="277.333" r="32"/>
	<circle style="fill:#607D8B;" cx="309.333" cy="277.333" r="32"/>
</g>
<path style="fill:#2196F3;" d="M503.915,288.32l-85.333-21.333c-1.693-0.437-3.47-0.437-5.163,0l-85.333,21.333
	c-4.75,1.185-8.084,5.451-8.085,10.347v128c0,33.003,70.4,64.875,91.904,73.835c2.628,1.096,5.585,1.096,8.213,0
	C441.6,491.541,512,459.669,512,426.667v-128C511.999,293.771,508.665,289.505,503.915,288.32z"/>
<g>
	<polygon style="fill:#FAFAFA;" points="416,321.301 373.333,331.968 373.333,384 416,384 	"/>
	<path style="fill:#FAFAFA;" d="M416,384v59.733c15.174-7,29.491-15.726,42.667-26.005V384H416z"/>
</g>
<g>
</g>
<g>
</g>
<g>
</g>
<g>
</g>
<g>
</g>
<g>
</g>
<g>
</g>
<g>
</g>
<g>
</g>
<g>
</g>
<g>
</g>
<g>
</g>
<g>
</g>
<g>
</g>
<g>
</g>
</svg>
