<?xml version="1.0" encoding="iso-8859-1"?>
<!-- Generator: Adobe Illustrator 19.0.0, SVG Export Plug-In . SVG Version: 6.00 Build 0)  -->
<svg version="1.1" id="Capa_1" xmlns="http://www.w3.org/2000/svg" xmlns:xlink="http://www.w3.org/1999/xlink" x="0px" y="0px"
	 viewBox="0 0 512.023 512.023" style="enable-background:new 0 0 512.023 512.023;" xml:space="preserve">
<path style="fill:#CFD8DC;" d="M472.417,64.449l-213.333-64c-1.997-0.598-4.126-0.598-6.123,0l-213.333,64
	c-4.518,1.349-7.615,5.504-7.616,10.219v234.667c0,94.336,143.829,178.219,220.843,202.197c2.083,0.655,4.317,0.655,6.4,0
	c76.928-23.979,220.757-107.861,220.757-202.197V74.667C480.013,69.958,476.926,65.805,472.417,64.449z"/>
<path style="fill:#2196F3;" d="M392.417,174.763c-2.022-2.586-5.123-4.097-8.405-4.096h-224
	c-5.891-0.001-10.668,4.773-10.669,10.664c0,0.717,0.072,1.433,0.216,2.136l21.333,106.667c1.014,4.967,5.384,8.534,10.453,8.533
	c0.419,0.026,0.84,0.026,1.259,0l181.333-21.333c4.396-0.522,8.012-3.706,9.088-8l21.333-85.333
	C395.183,180.787,394.465,177.373,392.417,174.763z"/>
<g>
	<path style="fill:#1976D2;" d="M159.691,157.419c-1.185-4.75-5.451-8.084-10.347-8.085h-42.667
		c-5.891,0-10.667,4.776-10.667,10.667s4.776,10.667,10.667,10.667h34.325l40.661,162.581c1.558,5.681,7.426,9.024,13.108,7.466
		c5.496-1.507,8.837-7.069,7.586-12.629L159.691,157.419z"/>
	<circle style="fill:#1976D2;" cx="234.678" cy="352.001" r="32"/>
	<circle style="fill:#1976D2;" cx="320.011" cy="352.001" r="32"/>
</g>
<g>
</g>
<g>
</g>
<g>
</g>
<g>
</g>
<g>
</g>
<g>
</g>
<g>
</g>
<g>
</g>
<g>
</g>
<g>
</g>
<g>
</g>
<g>
</g>
<g>
</g>
<g>
</g>
<g>
</g>
</svg>
