<?xml version="1.0" encoding="iso-8859-1"?>
<!-- Generator: Adobe Illustrator 19.0.0, SVG Export Plug-In . SVG Version: 6.00 Build 0)  -->
<svg version="1.1" id="Capa_1" xmlns="http://www.w3.org/2000/svg" xmlns:xlink="http://www.w3.org/1999/xlink" x="0px" y="0px"
	 viewBox="0 0 512 512" style="enable-background:new 0 0 512 512;" xml:space="preserve">
<path style="fill:#455A64;" d="M490.667,53.338v53.333H0V53.338C0,23.883,23.878,0.005,53.333,0.005h384
	C466.789,0.005,490.667,23.883,490.667,53.338z"/>
<path style="fill:#CFD8DC;" d="M490.667,106.672v192c-0.037,2.982-1.267,5.824-3.413,7.893L337.92,445.232
	c-1.997,1.78-4.578,2.767-7.253,2.773H53.333C23.878,448.005,0,424.127,0,394.672v-288H490.667z"/>
<circle style="fill:#F44336;" cx="53.333" cy="53.338" r="10.667"/>
<circle style="fill:#FFC107;" cx="96" cy="53.338" r="10.667"/>
<circle style="fill:#4CAF50;" cx="138.667" cy="53.338" r="10.667"/>
<path style="fill:#FFC107;" d="M381.739,174.768c-2.022-2.586-5.122-4.097-8.405-4.096h-224
	c-5.891-0.001-10.668,4.773-10.669,10.664c0,0.717,0.072,1.433,0.216,2.136l21.333,106.667c1.014,4.967,5.384,8.534,10.453,8.533
	c0.419,0.026,0.839,0.026,1.259,0l181.333-21.333c4.396-0.522,8.012-3.706,9.088-8l21.333-85.333
	C384.505,180.791,383.787,177.377,381.739,174.768z"/>
<g>
	<path style="fill:#607D8B;" d="M149.013,157.424c-1.185-4.75-5.451-8.084-10.347-8.085H96c-5.891,0-10.667,4.776-10.667,10.667
		S90.109,170.672,96,170.672h34.325l40.661,162.581c1.558,5.681,7.426,9.024,13.108,7.466c5.496-1.507,8.837-7.069,7.586-12.629
		L149.013,157.424z"/>
	<circle style="fill:#607D8B;" cx="224" cy="352.005" r="32"/>
	<circle style="fill:#607D8B;" cx="309.333" cy="352.005" r="32"/>
</g>
<path style="fill:#2196F3;" d="M503.915,298.992l-85.333-21.333c-1.693-0.437-3.47-0.437-5.163,0l-85.333,21.333
	c-4.75,1.185-8.084,5.451-8.085,10.347v128c0,33.003,70.4,64.875,91.904,73.835c2.628,1.096,5.585,1.096,8.213,0
	C441.6,502.213,512,470.341,512,437.338v-128C511.999,304.443,508.665,300.176,503.915,298.992z"/>
<g>
	<polygon style="fill:#FAFAFA;" points="416,331.973 373.333,342.64 373.333,394.672 416,394.672 	"/>
	<path style="fill:#FAFAFA;" d="M416,394.672v59.733c15.174-7,29.491-15.726,42.667-26.005v-33.728H416z"/>
</g>
<g>
</g>
<g>
</g>
<g>
</g>
<g>
</g>
<g>
</g>
<g>
</g>
<g>
</g>
<g>
</g>
<g>
</g>
<g>
</g>
<g>
</g>
<g>
</g>
<g>
</g>
<g>
</g>
<g>
</g>
</svg>
