<?xml version="1.0" encoding="iso-8859-1"?>
<!-- Generator: Adobe Illustrator 19.0.0, SVG Export Plug-In . SVG Version: 6.00 Build 0)  -->
<svg version="1.1" id="Capa_1" xmlns="http://www.w3.org/2000/svg" xmlns:xlink="http://www.w3.org/1999/xlink" x="0px" y="0px"
	 viewBox="0 0 490.667 490.667" style="enable-background:new 0 0 490.667 490.667;" xml:space="preserve">
<path style="fill:#FFC107;" d="M10.667,128H480c5.891,0,10.667,4.776,10.667,10.667V480c0,5.891-4.776,10.667-10.667,10.667H10.667
	C4.776,490.667,0,485.891,0,480V138.667C0,132.776,4.776,128,10.667,128z"/>
<path style="fill:#455A64;" d="M373.333,213.333c-5.891,0-10.667-4.776-10.667-10.667v-128c0-29.455-23.878-53.333-53.333-53.333
	h-128C151.878,21.333,128,45.211,128,74.667v128c0,5.891-4.776,10.667-10.667,10.667s-10.667-4.776-10.667-10.667v-128
	C106.667,33.429,140.096,0,181.333,0h128C350.571,0,384,33.429,384,74.667v128C384,208.558,379.224,213.333,373.333,213.333z"/>
<circle style="fill:#F44336;" cx="245.333" cy="309.333" r="117.333"/>
<g>
	<path style="fill:#FAFAFA;" d="M288,384h-85.333c-5.891-0.004-10.663-4.784-10.659-10.675c0.001-1.143,0.185-2.278,0.547-3.363
		l19.669-59.051l-18.432-27.733c-1.155-1.732-1.778-3.764-1.792-5.845c3.337-26.292,26.95-45.182,53.333-42.667
		c33.6,0,51.541,10.453,53.333,31.104c0.492,5.867-3.862,11.023-9.728,11.52c-5.844,0.421-10.956-3.896-11.52-9.728
		c-0.64-7.659-11.413-11.563-32-11.563c-13.505-1.467-26.386,6.055-31.744,18.539l19.2,28.885c1.827,2.743,2.284,6.176,1.237,9.301
		l-16.64,49.963H288c5.891,0,10.667,4.776,10.667,10.667c0,5.891-4.776,10.667-10.667,10.667V384z"/>
	<path style="fill:#FAFAFA;" d="M245.333,320h-64c-5.891,0-10.667-4.776-10.667-10.667s4.776-10.667,10.667-10.667h64
		c5.891,0,10.667,4.776,10.667,10.667S251.224,320,245.333,320z"/>
</g>
<g>
</g>
<g>
</g>
<g>
</g>
<g>
</g>
<g>
</g>
<g>
</g>
<g>
</g>
<g>
</g>
<g>
</g>
<g>
</g>
<g>
</g>
<g>
</g>
<g>
</g>
<g>
</g>
<g>
</g>
</svg>
