<?xml version="1.0" encoding="iso-8859-1"?>
<!-- Generator: Adobe Illustrator 19.0.0, SVG Export Plug-In . SVG Version: 6.00 Build 0)  -->
<svg version="1.1" id="Capa_1" xmlns="http://www.w3.org/2000/svg" xmlns:xlink="http://www.w3.org/1999/xlink" x="0px" y="0px"
	 viewBox="0 0 490.667 490.667" style="enable-background:new 0 0 490.667 490.667;" xml:space="preserve">
<path style="fill:#64B5F6;" d="M426.667,117.38v234.667c0.031,4.437-2.687,8.429-6.827,10.027l-170.667,64
	c-1.237,0.42-2.534,0.636-3.84,0.64v-352l170.667,32C421.892,106.713,426.667,111.489,426.667,117.38z"/>
<path style="fill:#1E88E5;" d="M245.334,74.713v352c-1.306-0.004-2.603-0.22-3.84-0.64l-170.667-64
	c-4.139-1.597-6.858-5.59-6.827-10.027V117.38c0-5.891,4.776-10.667,10.667-10.667L245.334,74.713z"/>
<g>
	<path style="fill:#2196F3;" d="M254.571,69.359c-2.151-3.705-6.31-5.763-10.56-5.227L73.345,85.465
		c-2.885,0.379-5.49,1.92-7.211,4.267l-64,85.333c-3.535,4.713-2.58,11.399,2.133,14.933c1.846,1.385,4.092,2.133,6.4,2.133
		c0.441,0.026,0.882,0.026,1.323,0l170.667-21.333c2.899-0.4,5.506-1.974,7.211-4.352l64-85.333
		C256.439,77.691,256.717,73.063,254.571,69.359z"/>
	<path style="fill:#2196F3;" d="M488.534,174.98l-64-85.333c-1.721-2.346-4.326-3.887-7.211-4.267L246.657,64.047
		c-5.841-0.769-11.199,3.343-11.967,9.184c-0.369,2.804,0.39,5.639,2.111,7.883l64,85.333c1.721,2.346,4.326,3.887,7.211,4.267
		l170.667,21.333c0.441,0.026,0.882,0.026,1.323,0c5.891,0,10.667-4.776,10.667-10.667
		C490.667,179.072,489.919,176.826,488.534,174.98z"/>
</g>
<g>
	<path style="fill:#FAFAFA;" d="M181.334,362.713c-5.891,0-10.667-4.776-10.667-10.667v-64c0-5.891,4.776-10.667,10.667-10.667
		c5.891,0,10.667,4.776,10.667,10.667v64C192.001,357.938,187.225,362.713,181.334,362.713z"/>
	<path style="fill:#FAFAFA;" d="M213.334,330.713c-2.831,0.005-5.548-1.115-7.552-3.115l-24.448-24.469l-24.448,24.469
		c-4.237,4.092-10.99,3.975-15.083-0.262c-3.992-4.134-3.992-10.687,0-14.82l32-32c4.165-4.164,10.917-4.164,15.083,0l32,32
		c4.159,4.172,4.148,10.926-0.024,15.085C218.864,329.593,216.156,330.713,213.334,330.713z"/>
	<path style="fill:#FAFAFA;" d="M288.001,362.713c-5.891-0.003-10.664-4.782-10.661-10.673c0.003-4.354,2.652-8.27,6.693-9.893
		l53.333-21.333c5.473-2.186,11.681,0.479,13.867,5.952c2.186,5.473-0.479,11.681-5.952,13.867l-53.333,21.333
		C290.691,362.463,289.352,362.716,288.001,362.713z"/>
</g>
<g>
</g>
<g>
</g>
<g>
</g>
<g>
</g>
<g>
</g>
<g>
</g>
<g>
</g>
<g>
</g>
<g>
</g>
<g>
</g>
<g>
</g>
<g>
</g>
<g>
</g>
<g>
</g>
<g>
</g>
</svg>
