<?xml version="1.0" encoding="iso-8859-1"?>
<!-- Generator: Adobe Illustrator 19.0.0, SVG Export Plug-In . SVG Version: 6.00 Build 0)  -->
<svg version="1.1" id="Capa_1" xmlns="http://www.w3.org/2000/svg" xmlns:xlink="http://www.w3.org/1999/xlink" x="0px" y="0px"
	 viewBox="0 0 512 512" style="enable-background:new 0 0 512 512;" xml:space="preserve">
<path style="fill:#607D8B;" d="M448,448H64c-29.455,0-53.333,23.878-53.333,53.333c0,5.891,4.776,10.667,10.667,10.667h469.333
	c5.891,0,10.667-4.776,10.667-10.667C501.333,471.878,477.455,448,448,448z"/>
<path style="fill:#455A64;" d="M362.667,0H149.333C119.878,0,96,23.878,96,53.333V96c0,5.891,4.776,10.667,10.667,10.667h298.667
	c5.891,0,10.667-4.776,10.667-10.667V53.333C416,23.878,392.122,0,362.667,0z"/>
<path style="fill:#64B5F6;" d="M213.333,85.333V234.24c-17.059,23.548-49.978,28.808-73.527,11.749
	c-4.442-3.218-8.353-7.11-11.593-11.535l21.12-149.12H213.333z"/>
<path style="fill:#2196F3;" d="M106.667,85.333h42.667l-21.12,149.12c-10.145,13.483-26.007,21.453-42.88,21.547
	C55.878,256,32,232.122,32,202.667c-0.036-1.953,0.482-3.876,1.493-5.547l64-106.667C99.44,87.255,102.922,85.312,106.667,85.333z"
	/>
<path style="fill:#64B5F6;" d="M383.787,234.027c-9.728,13.801-25.568,22-42.453,21.973c-16.878-0.035-32.728-8.119-42.667-21.76
	V85.333h64L383.787,234.027z"/>
<g>
	<path style="fill:#2196F3;" d="M213.333,85.333h85.333V234.24c-17.098,23.564-50.06,28.806-73.625,11.709
		c-4.495-3.262-8.447-7.213-11.709-11.709V85.333z"/>
	<path style="fill:#2196F3;" d="M480,202.667c0.093,29.361-23.633,53.238-52.994,53.331c-17.102,0.054-33.186-8.122-43.22-21.971
		l-21.12-148.693h42.667c3.745-0.022,7.226,1.921,9.173,5.12l64,106.667C479.518,198.791,480.036,200.714,480,202.667z"/>
</g>
<g>
	<path style="fill:#455A64;" d="M138.667,426.667c-4.759-0.008-8.936-3.168-10.24-7.744l-21.76-76.096l-21.76,76.096
		c-1.257,4.867-5.825,8.131-10.837,7.744c-4.98-0.281-9.1-3.976-9.92-8.896l-21.333-128c-0.791-5.838,3.3-11.211,9.138-12.002
		c5.59-0.758,10.804,2.969,11.897,8.504l13.568,81.323l19.008-66.496c2.311-5.661,8.774-8.377,14.436-6.066
		c2.755,1.125,4.941,3.311,6.066,6.066l19.008,66.496l13.568-81.323c1.141-5.779,6.752-9.539,12.531-8.398
		c5.535,1.093,9.261,6.306,8.504,11.897l-21.333,128c-0.822,4.927-4.953,8.624-9.941,8.896H138.667z"/>
	<path style="fill:#455A64;" d="M288,426.667c-4.759-0.008-8.936-3.168-10.24-7.744L256,342.827l-21.76,76.096
		c-1.252,4.878-5.84,8.141-10.859,7.723c-4.98-0.281-9.1-3.976-9.92-8.896l-21.333-128c-0.791-5.838,3.3-11.211,9.138-12.002
		c5.59-0.758,10.804,2.969,11.897,8.504l13.568,81.323l19.008-66.496c2.311-5.661,8.774-8.377,14.436-6.066
		c2.755,1.125,4.941,3.311,6.066,6.066l19.008,66.496l13.568-81.323c1.141-5.779,6.752-9.539,12.531-8.398
		c5.535,1.093,9.261,6.306,8.504,11.897l-21.333,128c-0.82,4.92-4.94,8.615-9.92,8.896L288,426.667z"/>
	<path style="fill:#455A64;" d="M437.333,426.667c-4.759-0.008-8.936-3.168-10.24-7.744l-21.76-76.096l-21.76,76.096
		c-1.297,4.846-5.855,8.088-10.859,7.723c-4.98-0.281-9.1-3.976-9.92-8.896l-21.333-128c-0.791-5.838,3.3-11.211,9.138-12.002
		c5.59-0.758,10.804,2.969,11.897,8.504l13.568,81.323l19.008-66.496c2.311-5.661,8.774-8.377,14.436-6.066
		c2.755,1.125,4.941,3.311,6.066,6.066l19.008,66.496l13.568-81.323c1.141-5.779,6.752-9.539,12.531-8.398
		c5.535,1.093,9.261,6.306,8.504,11.897l-21.333,128c-0.82,4.92-4.94,8.615-9.92,8.896L437.333,426.667z"/>
</g>
<g>
</g>
<g>
</g>
<g>
</g>
<g>
</g>
<g>
</g>
<g>
</g>
<g>
</g>
<g>
</g>
<g>
</g>
<g>
</g>
<g>
</g>
<g>
</g>
<g>
</g>
<g>
</g>
<g>
</g>
</svg>
