<?xml version="1.0" encoding="iso-8859-1"?>
<!-- Generator: Adobe Illustrator 19.0.0, SVG Export Plug-In . SVG Version: 6.00 Build 0)  -->
<svg version="1.1" id="Capa_1" xmlns="http://www.w3.org/2000/svg" xmlns:xlink="http://www.w3.org/1999/xlink" x="0px" y="0px"
	 viewBox="0 0 512 512" style="enable-background:new 0 0 512 512;" xml:space="preserve">
<path style="fill:#FFC107;" d="M495.168,100.267c-2.023-2.391-4.996-3.772-8.128-3.776L96,96
	c-5.891-0.001-10.668,4.773-10.669,10.664c0,0.717,0.072,1.433,0.216,2.136l42.667,213.333c1.012,4.959,5.37,8.524,10.432,8.533
	c0.476,0.031,0.953,0.031,1.429,0l320-42.667c4.648-0.622,8.344-4.206,9.109-8.832l28.352-170.155
	C498.086,105.891,497.218,102.685,495.168,100.267z"/>
<circle style="fill:#ECEFF1;" cx="416" cy="106.667" r="85.333"/>
<path style="fill:#2196F3;" d="M416,10.667c-53.019,0-96,42.981-96,96s42.981,96,96,96s96-42.981,96-96S469.019,10.667,416,10.667z
	 M416,181.333c-4.651,0-14.336-14.763-18.88-42.667h37.781C430.336,166.571,420.651,181.333,416,181.333z M395.072,117.333
	c-0.171-3.499-0.405-6.891-0.405-10.667s0.235-7.168,0.405-10.667h41.835c0.171,3.499,0.405,6.891,0.405,10.667
	s-0.235,7.168-0.405,10.667H395.072z M341.333,106.667c0.103-3.577,0.467-7.142,1.088-10.667h31.339
	c-0.171,3.563-0.405,7.104-0.405,10.667c0,3.563,0.256,7.104,0.405,10.667h-31.339C341.8,113.809,341.437,110.244,341.333,106.667z
	 M416,32c4.651,0,14.336,14.763,18.88,42.667h-37.76C401.664,46.763,411.349,32,416,32z M458.261,96H489.6
	c0.614,3.525,0.971,7.09,1.067,10.667c-0.103,3.577-0.467,7.142-1.088,10.667h-31.317c0.171-3.563,0.405-7.104,0.405-10.667
	C458.667,103.104,458.411,99.563,458.261,96L458.261,96z M483.179,74.667H456.32c-1.618-12.265-4.771-24.277-9.387-35.755
	C462.821,46.229,475.645,58.88,483.179,74.667L483.179,74.667z M385.045,38.912c-4.608,11.479-7.754,23.491-9.365,35.755h-26.859
	c7.533-15.787,20.357-28.437,36.245-35.755H385.045z M348.821,138.667h26.859c1.618,12.265,4.771,24.277,9.387,35.755
	C369.179,167.104,356.355,154.454,348.821,138.667z M446.955,174.421c4.615-11.478,7.769-23.49,9.387-35.755H483.2
	c-7.539,15.79-20.371,28.441-36.267,35.755H446.955z"/>
<g>
	<circle style="fill:#455A64;" cx="394.667" cy="448" r="53.333"/>
	<circle style="fill:#455A64;" cx="181.333" cy="448" r="53.333"/>
	<path style="fill:#455A64;" d="M191.125,373.333h246.208c5.891,0,10.667-4.776,10.667-10.667c0-5.891-4.776-10.667-10.667-10.667
		H191.125c-25.403-0.055-47.26-17.979-52.288-42.88L85.12,40.533c-1.014-4.967-5.384-8.534-10.453-8.533h-64
		C4.776,32,0,36.776,0,42.667s4.776,10.667,10.667,10.667H65.92l51.989,259.989C124.963,348.177,155.564,373.26,191.125,373.333z"/>
</g>
<g>
</g>
<g>
</g>
<g>
</g>
<g>
</g>
<g>
</g>
<g>
</g>
<g>
</g>
<g>
</g>
<g>
</g>
<g>
</g>
<g>
</g>
<g>
</g>
<g>
</g>
<g>
</g>
<g>
</g>
</svg>
