<?xml version="1.0" encoding="iso-8859-1"?>
<!-- Generator: Adobe Illustrator 19.0.0, SVG Export Plug-In . SVG Version: 6.00 Build 0)  -->
<svg version="1.1" id="Capa_1" xmlns="http://www.w3.org/2000/svg" xmlns:xlink="http://www.w3.org/1999/xlink" x="0px" y="0px"
	 viewBox="0 0 490.688 490.688" style="enable-background:new 0 0 490.688 490.688;" xml:space="preserve">
<path style="fill:#2196F3;" d="M462.784,209.088c-7.552-5.568-17.067-12.523-18.219-17.067c0.484-8.796,2.996-17.36,7.339-25.024
	c6.656-15.275,13.525-31.104,5.888-44.267c-7.637-13.163-25.003-15.296-41.707-17.067c-8.658-0.058-17.188-2.094-24.939-5.952
	c-3.864-7.778-5.893-16.339-5.931-25.024c-1.877-16.704-3.819-33.984-17.067-41.707c-13.248-7.723-29.099-0.96-44.373,5.781
	c-7.67,4.346-16.242,6.858-25.045,7.339c-4.608-1.237-11.541-10.667-17.067-18.219c-9.685-13.056-20.587-27.861-36.331-27.861
	s-26.645,14.805-36.267,27.861c-5.589,7.573-12.523,17.067-17.067,18.24c-8.799-0.506-17.365-3.016-25.045-7.339
	c-15.36-6.763-31.211-13.525-44.309-5.909s-15.317,25.003-17.195,41.813c-0.061,8.655-2.089,17.183-5.931,24.939
	c-7.736,3.803-16.233,5.801-24.853,5.845c-16.725,1.877-34.027,3.819-41.728,17.067S32,151.616,38.741,166.912
	c4.357,7.689,6.869,16.284,7.339,25.109c-1.237,4.608-10.667,11.563-18.219,17.067C14.805,218.688,0,229.611,0,245.355
	s14.805,26.667,27.883,36.267c7.552,5.568,17.067,12.523,18.219,17.067c-0.484,8.796-2.996,17.36-7.339,25.024
	c-6.656,15.275-13.525,31.104-5.888,44.267c7.637,13.163,25.003,15.296,41.707,17.067c8.658,0.058,17.188,2.094,24.939,5.952
	c3.864,7.778,5.893,16.339,5.931,25.024c1.877,16.704,3.819,33.984,17.067,41.707c13.248,7.723,28.992,0.768,44.267-5.888
	c7.735-4.326,16.365-6.808,25.216-7.253c4.608,1.237,11.541,10.667,17.067,18.219c9.621,13.056,20.523,27.861,36.267,27.861
	s26.645-14.805,36.267-27.861c5.589-7.573,12.523-17.067,17.067-18.24c8.806,0.463,17.382,2.976,25.045,7.339
	c15.275,6.635,31.125,13.483,44.245,5.909c13.12-7.573,15.317-25.003,17.195-41.728c0.061-8.655,2.089-17.183,5.931-24.939
	c7.75-3.834,16.271-5.855,24.917-5.909c16.725-1.877,34.027-3.819,41.728-17.067c7.701-13.248,0.747-28.971-5.888-44.267
	c-4.343-7.728-6.826-16.362-7.253-25.216c1.237-4.608,10.667-11.563,18.219-17.067c13.056-9.621,27.883-20.544,27.883-36.267
	S475.861,218.688,462.784,209.088z"/>
<g>
	<path style="fill:#FAFAFA;" d="M394.667,298.688H352c-5.891,0-10.667-4.776-10.667-10.667v-85.333
		c0-5.891,4.776-10.667,10.667-10.667h42.667c5.891,0,10.667,4.776,10.667,10.667c0,5.891-4.776,10.667-10.667,10.667h-32v64h32
		c5.891,0,10.667,4.776,10.667,10.667S400.558,298.688,394.667,298.688z"/>
	<path style="fill:#FAFAFA;" d="M394.667,256.021H352c-5.891,0-10.667-4.776-10.667-10.667s4.776-10.667,10.667-10.667h42.667
		c5.891,0,10.667,4.776,10.667,10.667S400.558,256.021,394.667,256.021z"/>
	<path style="fill:#FAFAFA;" d="M309.333,298.688h-42.667c-5.891,0-10.667-4.776-10.667-10.667v-85.333
		c0-5.891,4.776-10.667,10.667-10.667c5.891,0,10.667,4.776,10.667,10.667v74.667h32c5.891,0,10.667,4.776,10.667,10.667
		S315.224,298.688,309.333,298.688z"/>
	<path style="fill:#FAFAFA;" d="M224,298.688c-4.896-0.001-9.162-3.335-10.347-8.085l-10.987-43.925l-10.987,43.947
		c-1.426,5.72-7.218,9.202-12.939,7.776c-5.72-1.426-9.202-7.218-7.776-12.939l21.333-85.333c2.194-5.72,8.611-8.578,14.331-6.384
		c2.937,1.127,5.257,3.447,6.384,6.384l21.333,85.333c1.424,5.714-2.052,11.501-7.765,12.928
		C225.737,298.596,224.87,298.696,224,298.688z"/>
	<path style="fill:#FAFAFA;" d="M213.333,277.355H192c-5.891,0-10.667-4.776-10.667-10.667c0-5.891,4.776-10.667,10.667-10.667
		h21.333c5.891,0,10.667,4.776,10.667,10.667C224,272.579,219.224,277.355,213.333,277.355z"/>
	<path style="fill:#FAFAFA;" d="M117.333,298.688c-16.872,0.038-30.875-13.032-32-29.867c-0.377-5.879,4.084-10.95,9.963-11.327
		c0.007,0,0.014-0.001,0.021-0.001c5.847-0.295,10.863,4.125,11.307,9.963c0.212,5.903,5.169,10.516,11.072,10.304
		c5.903-0.212,10.516-5.169,10.304-11.072c0-4.779-2.027-8.235-12.139-10.667l-2.133-0.512
		c-23.467-5.888-28.395-20.331-28.395-31.488c-0.589-17.673,13.26-32.478,30.933-33.067s32.478,13.26,33.067,30.933
		c0.377,5.879-4.084,10.95-9.963,11.327c-0.007,0-0.014,0.001-0.021,0.001c-5.779,0.454-10.832-3.862-11.286-9.641
		c-0.008-0.107-0.015-0.214-0.02-0.322c-0.212-5.903-5.169-10.516-11.072-10.304s-10.516,5.169-10.304,11.072
		c0,4.779,2.133,8.235,12.181,10.667l2.133,0.533c23.445,5.867,28.352,20.331,28.352,31.467
		C149.333,284.361,135.006,298.688,117.333,298.688z"/>
</g>
<g>
</g>
<g>
</g>
<g>
</g>
<g>
</g>
<g>
</g>
<g>
</g>
<g>
</g>
<g>
</g>
<g>
</g>
<g>
</g>
<g>
</g>
<g>
</g>
<g>
</g>
<g>
</g>
<g>
</g>
</svg>
