<?xml version="1.0" encoding="iso-8859-1"?>
<!-- Generator: Adobe Illustrator 19.0.0, SVG Export Plug-In . SVG Version: 6.00 Build 0)  -->
<svg version="1.1" id="Capa_1" xmlns="http://www.w3.org/2000/svg" xmlns:xlink="http://www.w3.org/1999/xlink" x="0px" y="0px"
	 viewBox="0 0 490.667 490.667" style="enable-background:new 0 0 490.667 490.667;" xml:space="preserve">
<g>
	<path style="fill:#607D8B;" d="M96,224c-5.891,0.011-10.675-4.757-10.686-10.648c-0.005-2.84,1.123-5.565,3.134-7.571
		L195.115,99.115c4.237-4.092,10.99-3.975,15.083,0.262c3.992,4.134,3.992,10.687,0,14.82L103.531,220.864
		C101.535,222.866,98.827,223.994,96,224z"/>
	<path style="fill:#607D8B;" d="M394.667,224c-2.831,0.005-5.548-1.115-7.552-3.115L280.448,114.219
		c-4.092-4.237-3.975-10.99,0.262-15.083c4.134-3.992,10.687-3.992,14.82,0l106.667,106.667c4.159,4.172,4.149,10.926-0.024,15.085
		C400.18,222.875,397.482,223.994,394.667,224z"/>
</g>
<path style="fill:#2196F3;" d="M53.333,202.667h384c29.455,0,53.333,23.878,53.333,53.333v128c0,29.455-23.878,53.333-53.333,53.333
	h-384C23.878,437.333,0,413.455,0,384V256C0,226.545,23.878,202.667,53.333,202.667z"/>
<circle style="fill:#455A64;" cx="245.333" cy="106.667" r="53.333"/>
<g>
	<path style="fill:#FAFAFA;" d="M394.667,330.667c5.891,0,10.667-4.776,10.667-10.667c0-5.891-4.776-10.667-10.667-10.667h-32V288
		h32c5.891,0,10.667-4.776,10.667-10.667s-4.776-10.667-10.667-10.667H352c-5.891,0-10.667,4.776-10.667,10.667v85.333
		c0,5.891,4.776,10.667,10.667,10.667h42.667c5.891,0,10.667-4.776,10.667-10.667c0-5.891-4.776-10.667-10.667-10.667h-32v-21.333
		H394.667z"/>
	<path style="fill:#FAFAFA;" d="M309.333,352h-32v-74.667c0-5.891-4.776-10.667-10.667-10.667c-5.891,0-10.667,4.776-10.667,10.667
		v85.333c0,5.891,4.776,10.667,10.667,10.667h42.667c5.891,0,10.667-4.776,10.667-10.667C320,356.776,315.224,352,309.333,352z"/>
	<path style="fill:#FAFAFA;" d="M213.013,274.752c-2.177-5.714-8.574-8.582-14.288-6.405c-2.951,1.124-5.281,3.454-6.405,6.405
		l-21.333,85.333c-1.558,5.681,1.785,11.55,7.466,13.108c5.681,1.558,11.55-1.785,13.108-7.466c0.044-0.159,0.083-0.318,0.119-0.479
		L194.987,352h15.36l3.307,13.248c1.185,4.75,5.451,8.084,10.347,8.085c0.877-0.003,1.751-0.111,2.603-0.32
		c5.713-1.427,9.189-7.214,7.765-12.928L213.013,274.752z M200.32,330.667l2.347-9.344l2.347,9.344H200.32z"/>
	<path style="fill:#FAFAFA;" d="M121.003,309.909l-2.155-0.576c-10.133-2.475-12.181-5.931-12.181-10.667
		c-0.189-5.891,4.434-10.819,10.325-11.008c5.891-0.189,10.819,4.434,11.008,10.325c0.377,5.891,5.458,10.361,11.349,9.984
		c5.891-0.377,10.361-5.458,9.984-11.349l0,0c-0.589-17.673-15.394-31.522-33.067-30.933s-31.522,15.394-30.933,33.067
		c0,11.157,4.928,25.6,28.437,31.445l2.133,0.512c10.091,2.496,12.117,5.952,12.117,10.667c0.189,5.891-4.434,10.819-10.325,11.008
		c-5.891,0.188-10.819-4.434-11.008-10.325c-0.239-5.768-5.108-10.251-10.876-10.012c-0.151,0.006-0.301,0.016-0.452,0.028
		c-5.871,0.377-10.328,5.435-9.963,11.307c0.56,17.673,15.34,31.546,33.013,30.987c17.673-0.56,31.546-15.34,30.987-33.013l0,0
		C149.333,330.219,144.427,315.733,121.003,309.909z"/>
</g>
<g>
</g>
<g>
</g>
<g>
</g>
<g>
</g>
<g>
</g>
<g>
</g>
<g>
</g>
<g>
</g>
<g>
</g>
<g>
</g>
<g>
</g>
<g>
</g>
<g>
</g>
<g>
</g>
<g>
</g>
</svg>
