<?xml version="1.0" encoding="iso-8859-1"?>
<!-- Generator: Adobe Illustrator 19.0.0, SVG Export Plug-In . SVG Version: 6.00 Build 0)  -->
<svg version="1.1" id="Capa_1" xmlns="http://www.w3.org/2000/svg" xmlns:xlink="http://www.w3.org/1999/xlink" x="0px" y="0px"
	 viewBox="0 0 512 512" style="enable-background:new 0 0 512 512;" xml:space="preserve">
<path style="fill:#455A64;" d="M133.326,0h170.667c41.237,0,74.667,33.429,74.667,74.667v362.667
	c0,41.237-33.429,74.667-74.667,74.667H133.326c-41.237,0-74.667-33.429-74.667-74.667V74.667C58.659,33.429,92.089,0,133.326,0z"/>
<g>
	<rect x="79.993" y="106.667" style="fill:#FAFAFA;" width="298.667" height="277.333"/>
	<path style="fill:#FAFAFA;" d="M218.659,469.333c-11.782,0-21.333-9.551-21.333-21.333c0-11.782,9.551-21.333,21.333-21.333
		c11.782,0,21.333,9.551,21.333,21.333C239.993,459.782,230.441,469.333,218.659,469.333z"/>
	<path style="fill:#FAFAFA;" d="M239.993,64h-42.667c-5.891,0-10.667-4.776-10.667-10.667s4.776-10.667,10.667-10.667h42.667
		c5.891,0,10.667,4.776,10.667,10.667S245.884,64,239.993,64z"/>
	<path style="fill:#FAFAFA;" d="M304.419,64c-5.891,0-10.667-4.776-10.667-10.667c-0.001-5.809,4.646-10.55,10.453-10.667h0.213
		c5.891,0,10.667,4.776,10.667,10.667S310.31,64,304.419,64z"/>
</g>
<path style="fill:#2196F3;" d="M451.065,153.429c-2.022-2.586-5.123-4.097-8.405-4.096h-224
	c-5.891-0.001-10.668,4.773-10.669,10.664c0,0.717,0.072,1.433,0.216,2.135L229.539,268.8c1.014,4.967,5.384,8.534,10.453,8.533
	c0.419,0.026,0.839,0.026,1.259,0L422.585,256c4.396-0.522,8.012-3.706,9.088-8l21.333-85.333
	C453.831,159.453,453.113,156.039,451.065,153.429z"/>
<g>
	<path style="fill:#1976D2;" d="M250.659,320c-4.888-0.011-9.143-3.343-10.325-8.085l-40.683-162.581h-34.325
		c-5.891,0-10.667-4.776-10.667-10.667S159.435,128,165.326,128h42.667c4.896,0.001,9.162,3.335,10.347,8.085l42.667,170.667
		c1.426,5.716-2.052,11.505-7.768,12.931C252.394,319.893,251.528,320,250.659,320z"/>
	<path style="fill:#1976D2;" d="M293.326,362.667c-17.673,0-32-14.327-32-32c0-17.673,14.327-32,32-32c17.673,0,32,14.327,32,32
		C325.326,348.34,310.999,362.667,293.326,362.667z"/>
	<path style="fill:#1976D2;" d="M378.659,362.667c-17.673,0-32-14.327-32-32c0-17.673,14.327-32,32-32s32,14.327,32,32
		C410.659,348.34,396.332,362.667,378.659,362.667z"/>
</g>
<g>
</g>
<g>
</g>
<g>
</g>
<g>
</g>
<g>
</g>
<g>
</g>
<g>
</g>
<g>
</g>
<g>
</g>
<g>
</g>
<g>
</g>
<g>
</g>
<g>
</g>
<g>
</g>
<g>
</g>
</svg>
