<?xml version="1.0" encoding="iso-8859-1"?>
<!-- Generator: Adobe Illustrator 19.0.0, SVG Export Plug-In . SVG Version: 6.00 Build 0)  -->
<svg version="1.1" id="Capa_1" xmlns="http://www.w3.org/2000/svg" xmlns:xlink="http://www.w3.org/1999/xlink" x="0px" y="0px"
	 viewBox="0 0 512 512" style="enable-background:new 0 0 512 512;" xml:space="preserve">
<path style="fill:#455A64;" d="M106.659,0h256c29.455,0,53.333,23.878,53.333,53.333v405.333c0,29.455-23.878,53.333-53.333,53.333
	h-256c-29.455,0-53.333-23.878-53.333-53.333V53.333C53.326,23.878,77.204,0,106.659,0z"/>
<path style="fill:#ECEFF1;" d="M106.659,21.333h256c17.673,0,32,14.327,32,32v352h-320v-352
	C74.659,35.66,88.986,21.333,106.659,21.333z"/>
<path style="fill:#FAFAFA;" d="M255.993,469.333h-42.667c-5.891,0-10.667-4.776-10.667-10.667c0-5.891,4.776-10.667,10.667-10.667
	h42.667c5.891,0,10.667,4.776,10.667,10.667C266.659,464.558,261.884,469.333,255.993,469.333z"/>
<circle style="fill:#455A64;" cx="106.659" cy="53.333" r="10.667"/>
<path style="fill:#2196F3;" d="M456.398,153.429c-2.022-2.586-5.122-4.097-8.405-4.096h-224
	c-5.891-0.001-10.668,4.773-10.669,10.664c0,0.717,0.072,1.433,0.216,2.135L234.873,268.8c1.014,4.967,5.384,8.534,10.453,8.533
	c0.419,0.026,0.84,0.026,1.259,0L427.918,256c4.396-0.522,8.012-3.706,9.088-8l21.333-85.333
	C459.164,159.453,458.446,156.039,456.398,153.429z"/>
<g>
	<path style="fill:#1976D2;" d="M223.673,136.085c-1.185-4.75-5.451-8.084-10.347-8.085h-42.667
		c-5.891,0-10.667,4.776-10.667,10.667s4.776,10.667,10.667,10.667h34.325l40.661,162.581c1.558,5.681,7.426,9.024,13.108,7.466
		c5.496-1.507,8.837-7.069,7.586-12.629L223.673,136.085z"/>
	<circle style="fill:#1976D2;" cx="298.659" cy="330.667" r="32"/>
	<circle style="fill:#1976D2;" cx="383.993" cy="330.667" r="32"/>
</g>
<g>
</g>
<g>
</g>
<g>
</g>
<g>
</g>
<g>
</g>
<g>
</g>
<g>
</g>
<g>
</g>
<g>
</g>
<g>
</g>
<g>
</g>
<g>
</g>
<g>
</g>
<g>
</g>
<g>
</g>
</svg>
