<?xml version="1.0" encoding="iso-8859-1"?>
<!-- Generator: Adobe Illustrator 19.0.0, SVG Export Plug-In . SVG Version: 6.00 Build 0)  -->
<svg version="1.1" id="Capa_1" xmlns="http://www.w3.org/2000/svg" xmlns:xlink="http://www.w3.org/1999/xlink" x="0px" y="0px"
	 viewBox="0 0 490.667 490.667" style="enable-background:new 0 0 490.667 490.667;" xml:space="preserve">
<path style="fill:#FFC107;" d="M10.667,128H480c5.891,0,10.667,4.776,10.667,10.667V480c0,5.891-4.776,10.667-10.667,10.667H10.667
	C4.776,490.667,0,485.891,0,480V138.667C0,132.776,4.776,128,10.667,128z"/>
<path style="fill:#455A64;" d="M373.333,213.333c-5.891,0-10.667-4.776-10.667-10.667v-128c0-29.455-23.878-53.333-53.333-53.333
	h-128C151.878,21.333,128,45.211,128,74.667v128c0,5.891-4.776,10.667-10.667,10.667s-10.667-4.776-10.667-10.667v-128
	C106.667,33.429,140.096,0,181.333,0h128C350.571,0,384,33.429,384,74.667v128C384,208.558,379.224,213.333,373.333,213.333z"/>
<path style="fill:#F44336;" d="M338.219,301.781l-85.333-85.333c-4.165-4.164-10.917-4.164-15.083,0l-85.333,85.333
	c-4.171,4.16-4.179,10.914-0.019,15.085c2.001,2.006,4.717,3.133,7.55,3.134h10.667v74.667c0,5.891,4.776,10.667,10.667,10.667H224
	c5.891,0,10.667-4.776,10.667-10.667v-53.333H256v53.333c0,5.891,4.776,10.667,10.667,10.667h42.667
	c5.891,0,10.667-4.776,10.667-10.667V320h10.667c5.891,0.011,10.675-4.757,10.686-10.648
	C341.358,306.512,340.23,303.787,338.219,301.781z"/>
<g>
</g>
<g>
</g>
<g>
</g>
<g>
</g>
<g>
</g>
<g>
</g>
<g>
</g>
<g>
</g>
<g>
</g>
<g>
</g>
<g>
</g>
<g>
</g>
<g>
</g>
<g>
</g>
<g>
</g>
</svg>
