<?xml version="1.0" encoding="iso-8859-1"?>
<!-- Generator: Adobe Illustrator 19.0.0, SVG Export Plug-In . SVG Version: 6.00 Build 0)  -->
<svg version="1.1" id="Capa_1" xmlns="http://www.w3.org/2000/svg" xmlns:xlink="http://www.w3.org/1999/xlink" x="0px" y="0px"
	 viewBox="0 0 531.246 531.246" style="enable-background:new 0 0 531.246 531.246;" xml:space="preserve">
<path style="fill:#FFC107;" d="M460.8,286.569c-6.801-0.02-13.423-2.185-18.923-6.187l-55.744-40.853l-55.787,40.853
	c-14.262,10.437-34.285,7.336-44.722-6.926c-5.96-8.145-7.729-18.624-4.772-28.274l20.651-67.243l-58.048-42.155
	c-6.479-4.817-10.868-11.931-12.267-19.883H96c-5.891-0.001-10.668,4.773-10.669,10.664c0,0.717,0.072,1.433,0.216,2.136
	l42.667,213.333c1.079,5.531,6.274,9.269,11.861,8.533l320-42.667c4.339-0.58,7.883-3.752,8.939-8l4.011-16.021
	C469.169,285.582,465.013,286.496,460.8,286.569z"/>
<g>
	<circle style="fill:#455A64;" cx="394.667" cy="467.902" r="53.333"/>
	<circle style="fill:#455A64;" cx="181.333" cy="467.902" r="53.333"/>
	<path style="fill:#455A64;" d="M191.125,393.235h246.208c5.891,0,10.667-4.776,10.667-10.667c0-5.891-4.776-10.667-10.667-10.667
		H191.125c-25.408-0.053-47.272-17.976-52.309-42.88L85.12,60.435c-1.014-4.967-5.384-8.534-10.453-8.533h-64
		C4.776,51.902,0,56.678,0,62.569s4.776,10.667,10.667,10.667H65.92l51.989,259.968
		C124.954,368.067,155.557,393.159,191.125,393.235z"/>
</g>
<path style="fill:#F44336;" d="M530.731,106.579c-1.425-4.403-5.527-7.384-10.155-7.381h-86.848l-26.837-82.581
	c-2.48-5.602-9.032-8.134-14.634-5.654c-2.522,1.116-4.538,3.132-5.654,5.654l-26.837,82.603h-86.848
	c-5.891,0.07-10.609,4.902-10.539,10.793c0.039,3.313,1.616,6.419,4.267,8.407l70.4,51.2l-25.152,81.835
	c-1.722,5.634,1.448,11.597,7.082,13.319c3.211,0.982,6.697,0.394,9.409-1.586l68.267-50.112l68.416,50.027
	c4.758,3.474,11.431,2.433,14.905-2.325c1.98-2.712,2.568-6.198,1.586-9.409l-25.024-81.749l70.4-51.2
	C530.606,115.695,532.134,110.932,530.731,106.579z"/>
<g>
</g>
<g>
</g>
<g>
</g>
<g>
</g>
<g>
</g>
<g>
</g>
<g>
</g>
<g>
</g>
<g>
</g>
<g>
</g>
<g>
</g>
<g>
</g>
<g>
</g>
<g>
</g>
<g>
</g>
</svg>
