<?xml version="1.0" encoding="iso-8859-1"?>
<!-- Generator: Adobe Illustrator 19.0.0, SVG Export Plug-In . SVG Version: 6.00 Build 0)  -->
<svg version="1.1" id="Capa_1" xmlns="http://www.w3.org/2000/svg" xmlns:xlink="http://www.w3.org/1999/xlink" x="0px" y="0px"
	 viewBox="0 0 512 512" style="enable-background:new 0 0 512 512;" xml:space="preserve">
<path style="fill:#FFC107;" d="M394.667,256C318.117,255.918,256.082,193.883,256,117.333c0-3.605,0.277-7.125,0.533-10.667H96
	c-5.891-0.001-10.668,4.773-10.669,10.664c0,0.717,0.072,1.433,0.216,2.136L128.213,332.8c1.079,5.531,6.274,9.269,11.861,8.533
	l320-42.667c4.339-0.58,7.883-3.752,8.939-8L486.4,221.12C461.132,243.599,428.486,256.012,394.667,256z"/>
<g>
	<circle style="fill:#455A64;" cx="394.667" cy="458.667" r="53.333"/>
	<circle style="fill:#455A64;" cx="181.333" cy="458.667" r="53.333"/>
	<path style="fill:#455A64;" d="M191.125,384h246.208c5.891,0,10.667-4.776,10.667-10.667s-4.776-10.667-10.667-10.667H191.125
		c-25.408-0.053-47.272-17.976-52.309-42.88L85.12,51.2c-1.014-4.967-5.384-8.534-10.453-8.533h-64C4.776,42.667,0,47.442,0,53.333
		S4.776,64,10.667,64H65.92l51.989,259.968C124.954,358.831,155.557,383.924,191.125,384z"/>
</g>
<circle style="fill:#F44336;" cx="394.667" cy="117.333" r="117.333"/>
<g>
	<path style="fill:#FAFAFA;" d="M394.667,192c-26.383,2.516-49.996-16.375-53.333-42.667v-64
		c3.337-26.292,26.95-45.182,53.333-42.667c33.6,0,51.541,10.453,53.333,31.104c0.492,5.867-3.862,11.023-9.728,11.52
		c-5.876,0.47-11.042-3.861-11.605-9.728c-0.597-7.659-11.371-11.563-32-11.563c-17.365,0-32,9.771-32,21.333v64
		c0,11.563,14.656,21.333,32,21.333c20.587,0,31.36-3.904,32-11.563c0.564-5.855,5.695-10.191,11.563-9.771
		c5.866,0.497,10.22,5.653,9.728,11.52C446.229,181.547,428.309,192,394.667,192z"/>
	<path style="fill:#FAFAFA;" d="M394.667,106.667h-64C324.776,106.667,320,101.891,320,96c0-5.891,4.776-10.667,10.667-10.667h64
		c5.891,0,10.667,4.776,10.667,10.667C405.333,101.891,400.558,106.667,394.667,106.667z"/>
	<path style="fill:#FAFAFA;" d="M394.667,149.333h-64c-5.891,0-10.667-4.776-10.667-10.667S324.776,128,330.667,128h64
		c5.891,0,10.667,4.776,10.667,10.667S400.558,149.333,394.667,149.333z"/>
</g>
<g>
</g>
<g>
</g>
<g>
</g>
<g>
</g>
<g>
</g>
<g>
</g>
<g>
</g>
<g>
</g>
<g>
</g>
<g>
</g>
<g>
</g>
<g>
</g>
<g>
</g>
<g>
</g>
<g>
</g>
</svg>
