<?xml version="1.0" encoding="iso-8859-1"?>
<!-- Generator: Adobe Illustrator 19.0.0, SVG Export Plug-In . SVG Version: 6.00 Build 0)  -->
<svg version="1.1" id="Capa_1" xmlns="http://www.w3.org/2000/svg" xmlns:xlink="http://www.w3.org/1999/xlink" x="0px" y="0px"
	 viewBox="0 0 490.667 490.667" style="enable-background:new 0 0 490.667 490.667;" xml:space="preserve">
<path style="fill:#FFC107;" d="M10.667,128H480c5.891,0,10.667,4.776,10.667,10.667V480c0,5.891-4.776,10.667-10.667,10.667H10.667
	C4.776,490.667,0,485.891,0,480V138.667C0,132.776,4.776,128,10.667,128z"/>
<path style="fill:#455A64;" d="M373.333,213.333c-5.891,0-10.667-4.776-10.667-10.667v-128c0-29.455-23.878-53.333-53.333-53.333
	h-128C151.878,21.333,128,45.211,128,74.667v128c0,5.891-4.776,10.667-10.667,10.667s-10.667-4.776-10.667-10.667v-128
	C106.667,33.429,140.096,0,181.333,0h128C350.571,0,384,33.429,384,74.667v128C384,208.558,379.224,213.333,373.333,213.333z"/>
<circle style="fill:#F44336;" cx="245.333" cy="309.333" r="117.333"/>
<path style="fill:#FAFAFA;" d="M288.896,341.333c-5.825-0.364-10.903,3.924-11.52,9.728c-0.64,7.659-11.413,11.563-32,11.563
	c-17.365,0-32-9.771-32-21.333h31.957c5.891,0,10.667-4.776,10.667-10.667s-4.776-10.667-10.667-10.667h-32v-21.333h32
	c5.891,0,10.667-4.776,10.667-10.667c0-5.891-4.776-10.667-10.667-10.667h-32c0-11.563,14.656-21.333,32-21.333
	c20.587,0,31.36,3.883,32,11.563c0.575,5.826,5.68,10.137,11.52,9.728c5.866-0.497,10.22-5.653,9.728-11.52
	c-1.728-20.629-19.648-31.104-53.333-31.104c-26.383-2.516-49.996,16.375-53.333,42.667h-10.581
	c-5.891,0-10.667,4.776-10.667,10.667c0,5.891,4.776,10.667,10.667,10.667H192v21.333h-10.667c-5.891,0-10.667,4.776-10.667,10.667
	s4.776,10.667,10.667,10.667H192c3.337,26.292,26.95,45.182,53.333,42.667c33.6,0,51.541-10.453,53.333-31.104
	c0.49-5.871-3.871-11.027-9.742-11.518C288.915,341.335,288.906,341.334,288.896,341.333z"/>
<g>
</g>
<g>
</g>
<g>
</g>
<g>
</g>
<g>
</g>
<g>
</g>
<g>
</g>
<g>
</g>
<g>
</g>
<g>
</g>
<g>
</g>
<g>
</g>
<g>
</g>
<g>
</g>
<g>
</g>
</svg>
