<?xml version="1.0" encoding="iso-8859-1"?>
<!-- Generator: Adobe Illustrator 19.0.0, SVG Export Plug-In . SVG Version: 6.00 Build 0)  -->
<svg version="1.1" id="Capa_1" xmlns="http://www.w3.org/2000/svg" xmlns:xlink="http://www.w3.org/1999/xlink" x="0px" y="0px"
	 viewBox="0 0 512 512" style="enable-background:new 0 0 512 512;" xml:space="preserve">
<path style="fill:#FFC107;" d="M394.667,256C318.117,255.918,256.082,193.883,256,117.333c0-3.605,0.277-7.125,0.533-10.667H96
	c-5.891-0.001-10.668,4.773-10.669,10.664c0,0.717,0.072,1.433,0.216,2.136L128.213,332.8c1.079,5.531,6.274,9.269,11.861,8.533
	l320-42.667c4.339-0.58,7.883-3.752,8.939-8L486.4,221.12C461.132,243.599,428.486,256.012,394.667,256z"/>
<g>
	<circle style="fill:#455A64;" cx="394.667" cy="458.667" r="53.333"/>
	<circle style="fill:#455A64;" cx="181.333" cy="458.667" r="53.333"/>
	<path style="fill:#455A64;" d="M191.125,384h246.208c5.891,0,10.667-4.776,10.667-10.667s-4.776-10.667-10.667-10.667H191.125
		c-25.408-0.053-47.272-17.976-52.309-42.88L85.12,51.2c-1.014-4.967-5.384-8.534-10.453-8.533h-64C4.776,42.667,0,47.442,0,53.333
		S4.776,64,10.667,64H65.92l51.989,259.968C124.954,358.831,155.557,383.924,191.125,384z"/>
</g>
<circle style="fill:#F44336;" cx="394.667" cy="117.333" r="117.333"/>
<g>
	<path style="fill:#FAFAFA;" d="M394.667,170.667c-28.736,0-51.2-12.331-53.333-29.312c-0.742-5.891,3.432-11.268,9.323-12.011
		c5.891-0.742,11.268,3.432,12.011,9.323c0.384,3.093,12.096,10.667,32,10.667c20.672,0,32-8.021,32-10.667
		c0,0-0.363-6.656-31.104-10.475L393.216,128c-15.616-2.027-51.883-6.4-51.883-32c0-18.24,22.933-32,53.333-32
		c28.715,0,51.2,12.309,53.333,29.291c0.741,5.844-3.397,11.182-9.241,11.923c-0.006,0.001-0.012,0.001-0.018,0.002
		c-5.833,0.825-11.23-3.235-12.055-9.068c-0.007-0.049-0.014-0.098-0.02-0.148c-0.32-2.475-10.923-10.667-32-10.667
		c-20.672,0-32,8.021-32,10.667c0,0,0.363,6.699,31.232,10.475l2.133,0.299C411.733,108.8,448,113.195,448,138.667
		C448,156.907,425.067,170.667,394.667,170.667z"/>
	<path style="fill:#FAFAFA;" d="M394.667,192c-5.891,0-10.667-4.776-10.667-10.667v-128c0-5.891,4.776-10.667,10.667-10.667
		c5.891,0,10.667,4.776,10.667,10.667v128C405.333,187.224,400.558,192,394.667,192z"/>
</g>
<g>
</g>
<g>
</g>
<g>
</g>
<g>
</g>
<g>
</g>
<g>
</g>
<g>
</g>
<g>
</g>
<g>
</g>
<g>
</g>
<g>
</g>
<g>
</g>
<g>
</g>
<g>
</g>
<g>
</g>
</svg>
