<?xml version="1.0" encoding="iso-8859-1"?>
<!-- Generator: Adobe Illustrator 19.0.0, SVG Export Plug-In . SVG Version: 6.00 Build 0)  -->
<svg version="1.1" id="Capa_1" xmlns="http://www.w3.org/2000/svg" xmlns:xlink="http://www.w3.org/1999/xlink" x="0px" y="0px"
	 viewBox="0 0 490.667 490.667" style="enable-background:new 0 0 490.667 490.667;" xml:space="preserve">
<path style="fill:#FFC107;" d="M10.667,128H480c5.891,0,10.667,4.776,10.667,10.667V480c0,5.891-4.776,10.667-10.667,10.667H10.667
	C4.776,490.667,0,485.891,0,480V138.667C0,132.776,4.776,128,10.667,128z"/>
<path style="fill:#455A64;" d="M373.333,213.333c-5.891,0-10.667-4.776-10.667-10.667v-128c0-29.455-23.878-53.333-53.333-53.333
	h-128C151.878,21.333,128,45.211,128,74.667v128c0,5.891-4.776,10.667-10.667,10.667s-10.667-4.776-10.667-10.667v-128
	C106.667,33.429,140.096,0,181.333,0h128C350.571,0,384,33.429,384,74.667v128C384,208.558,379.224,213.333,373.333,213.333z"/>
<circle style="fill:#F44336;" cx="245.333" cy="309.333" r="117.333"/>
<g>
	<path style="fill:#FAFAFA;" d="M245.333,362.667c-28.693,0-51.072-12.331-53.227-29.312c-0.742-5.862,3.408-11.215,9.269-11.957
		c5.862-0.742,11.215,3.408,11.957,9.269c0.384,3.093,12.096,10.667,32,10.667c20.672,0,32-8.021,32-10.667
		c0,0-0.363-6.656-31.104-10.475l-2.325-0.299C228.267,317.973,192,313.6,192,288c0-18.24,22.933-32,53.333-32
		c28.693,0,51.072,12.309,53.227,29.291c0.741,5.844-3.397,11.182-9.241,11.923c-0.006,0.001-0.012,0.001-0.018,0.002
		c-5.761,0.828-11.103-3.171-11.931-8.932c-0.014-0.095-0.026-0.189-0.037-0.284c-0.32-2.475-10.923-10.667-32-10.667
		c-20.672,0-32,8.021-32,10.667c0,0,0.363,6.699,31.232,10.475l2.133,0.299c15.659,1.941,51.861,6.4,51.861,32
		C298.667,348.907,275.733,362.667,245.333,362.667z"/>
	<path style="fill:#FAFAFA;" d="M245.333,384c-5.891,0-10.667-4.776-10.667-10.667v-128c0-5.891,4.776-10.667,10.667-10.667
		c5.891,0,10.667,4.776,10.667,10.667v128C256,379.224,251.224,384,245.333,384z"/>
</g>
<g>
</g>
<g>
</g>
<g>
</g>
<g>
</g>
<g>
</g>
<g>
</g>
<g>
</g>
<g>
</g>
<g>
</g>
<g>
</g>
<g>
</g>
<g>
</g>
<g>
</g>
<g>
</g>
<g>
</g>
</svg>
