<?xml version="1.0" encoding="iso-8859-1"?>
<!-- Generator: Adobe Illustrator 19.0.0, SVG Export Plug-In . SVG Version: 6.00 Build 0)  -->
<svg version="1.1" id="Capa_1" xmlns="http://www.w3.org/2000/svg" xmlns:xlink="http://www.w3.org/1999/xlink" x="0px" y="0px"
	 viewBox="0 0 512 512" style="enable-background:new 0 0 512 512;" xml:space="preserve">
<path style="fill:#FFC107;" d="M394.667,256C318.117,255.918,256.082,193.883,256,117.333c0-3.605,0.277-7.125,0.533-10.667H96
	c-5.891-0.001-10.668,4.773-10.669,10.664c0,0.717,0.072,1.433,0.216,2.136L128.213,332.8c1.079,5.531,6.274,9.269,11.861,8.533
	l320-42.667c4.339-0.58,7.883-3.752,8.939-8L486.4,221.12C461.132,243.599,428.486,256.012,394.667,256z"/>
<g>
	<circle style="fill:#455A64;" cx="394.667" cy="458.667" r="53.333"/>
	<circle style="fill:#455A64;" cx="181.333" cy="458.667" r="53.333"/>
	<path style="fill:#455A64;" d="M191.125,384h246.208c5.891,0,10.667-4.776,10.667-10.667s-4.776-10.667-10.667-10.667H191.125
		c-25.408-0.053-47.272-17.976-52.309-42.88L85.12,51.2c-1.014-4.967-5.384-8.534-10.453-8.533h-64C4.776,42.667,0,47.442,0,53.333
		S4.776,64,10.667,64H65.92l51.989,259.968C124.954,358.831,155.557,383.924,191.125,384z"/>
</g>
<circle style="fill:#FAFAFA;" cx="394.667" cy="117.333" r="117.333"/>
<path style="fill:#F44336;" d="M477.867,200.021c44.725-46.892,42.969-121.163-3.923-165.888
	c-45.332-43.237-116.633-43.237-161.965,0l-0.256,0.171l-0.171,0.256c-44.75,46.869-43.032,121.14,3.837,165.89
	c45.309,43.261,116.611,43.297,161.965,0.083l0.256-0.171L477.867,200.021z M490.667,117.333
	c-0.095,21.715-7.624,42.743-21.333,59.584L335.083,42.667c16.841-13.709,37.869-21.238,59.584-21.333
	C447.686,21.333,490.667,64.314,490.667,117.333z M298.667,117.333c0.095-21.715,7.624-42.743,21.333-59.584L454.251,192
	c-16.841,13.709-37.869,21.238-59.584,21.333C341.647,213.333,298.667,170.353,298.667,117.333z"/>
<g>
</g>
<g>
</g>
<g>
</g>
<g>
</g>
<g>
</g>
<g>
</g>
<g>
</g>
<g>
</g>
<g>
</g>
<g>
</g>
<g>
</g>
<g>
</g>
<g>
</g>
<g>
</g>
<g>
</g>
</svg>
