<?xml version="1.0" encoding="iso-8859-1"?>
<!-- Generator: Adobe Illustrator 19.0.0, SVG Export Plug-In . SVG Version: 6.00 Build 0)  -->
<svg version="1.1" id="Capa_1" xmlns="http://www.w3.org/2000/svg" xmlns:xlink="http://www.w3.org/1999/xlink" x="0px" y="0px"
	 viewBox="0 0 490.8 490.8" style="enable-background:new 0 0 490.8 490.8;" xml:space="preserve">
<path style="fill:#FFC107;" d="M10.75,128.1h469.3c5.9,0,10.7,4.8,10.7,10.7v341.3c0,5.9-4.8,10.7-10.7,10.7H10.75
	c-5.9,0-10.7-4.8-10.7-10.7V138.7C0.15,132.8,4.85,128.1,10.75,128.1z"/>
<path style="fill:#455A64;" d="M373.45,213.4c-5.9,0-10.7-4.8-10.7-10.7v-128c0-29.5-23.9-53.3-53.3-53.3h-128
	c-29.5,0-53.3,23.9-53.3,53.3v128c0,5.9-4.8,10.7-10.7,10.7c-5.9,0-10.7-4.8-10.7-10.7v-128c0-41.2,33.4-74.7,74.7-74.7h128
	c41.2,0,74.7,33.4,74.7,74.7v128C384.15,208.6,379.35,213.4,373.45,213.4z"/>
<circle style="fill:#FAFAFA;" cx="245.45" cy="309.4" r="111"/>
<path style="fill:#F44336;" d="M328.65,392.1c44.7-46.9,43-121.2-3.9-165.9c-45.3-43.2-116.6-43.2-162,0l-0.3,0.2l-0.2,0.3
	c-44.7,46.9-43,121.1,3.8,165.9c45.3,43.3,116.6,43.3,162,0.1l0.3-0.2L328.65,392.1z M341.45,309.4c-0.1,21.7-7.6,42.7-21.3,59.6
	l-134.3-134.3c16.8-13.7,37.9-21.2,59.6-21.3C298.45,213.4,341.45,256.4,341.45,309.4z M149.45,309.4c0.1-21.7,7.6-42.7,21.3-59.6
	l134.3,134.3c-16.8,13.7-37.9,21.2-59.6,21.3C192.45,405.4,149.45,362.4,149.45,309.4z"/>
<g>
</g>
<g>
</g>
<g>
</g>
<g>
</g>
<g>
</g>
<g>
</g>
<g>
</g>
<g>
</g>
<g>
</g>
<g>
</g>
<g>
</g>
<g>
</g>
<g>
</g>
<g>
</g>
<g>
</g>
</svg>
