<?xml version="1.0" encoding="iso-8859-1"?>
<!-- Generator: Adobe Illustrator 19.0.0, SVG Export Plug-In . SVG Version: 6.00 Build 0)  -->
<svg version="1.1" id="Capa_1" xmlns="http://www.w3.org/2000/svg" xmlns:xlink="http://www.w3.org/1999/xlink" x="0px" y="0px"
	 viewBox="0 0 512 512" style="enable-background:new 0 0 512 512;" xml:space="preserve">
<path style="fill:#388E3C;" d="M74.667,128h426.667c5.891,0,10.667,4.776,10.667,10.667v298.667c0,5.891-4.776,10.667-10.667,10.667
	H74.667C68.776,448,64,443.224,64,437.333V138.667C64,132.776,68.776,128,74.667,128z"/>
<path style="fill:#4CAF50;" d="M10.667,64h426.667C443.224,64,448,68.776,448,74.667v298.667c0,5.891-4.776,10.667-10.667,10.667
	H10.667C4.776,384,0,379.224,0,373.333V74.667C0,68.776,4.776,64,10.667,64z"/>
<g>
	<path style="fill:#ECEFF1;" d="M224,298.667c-25.365,2.505-48.469-14.703-53.333-39.723c-0.492-5.867,3.862-11.023,9.728-11.52
		c5.829-0.375,10.914,3.919,11.52,9.728c0.939,11.115,15.296,20.181,32,20.181c17.365,0,32-9.771,32-21.333
		c0-10.411-10.112-17.067-31.787-21.099l-2.261-0.448c-34.603-6.379-51.2-20.544-51.2-42.453
		c3.337-26.292,26.95-45.182,53.333-42.667c25.358-2.507,48.46,14.69,53.333,39.701c0.504,5.869-3.845,11.036-9.715,11.54
		c-0.004,0-0.009,0.001-0.013,0.001c-5.85,0.389-10.967-3.9-11.605-9.728c-0.896-11.136-15.253-20.181-32-20.181
		c-17.344,0-32,9.771-32,21.333c0,10.411,10.133,17.067,31.872,21.12l2.325,0.448c34.56,6.4,51.2,20.544,51.2,42.453
		C274.049,282.332,250.4,301.22,224,298.667z"/>
	<path style="fill:#ECEFF1;" d="M224,320c-5.891,0-10.667-4.776-10.667-10.667V138.667c0-5.891,4.776-10.667,10.667-10.667
		c5.891,0,10.667,4.776,10.667,10.667v170.667C234.667,315.224,229.891,320,224,320z"/>
	<path style="fill:#ECEFF1;" d="M394.667,128H352c-5.891,0-10.667-4.776-10.667-10.667s4.776-10.667,10.667-10.667h42.667
		c5.891,0,10.667,4.776,10.667,10.667S400.558,128,394.667,128z"/>
	<path style="fill:#ECEFF1;" d="M96,341.333H53.333c-5.891,0-10.667-4.776-10.667-10.667c0-5.891,4.776-10.667,10.667-10.667H96
		c5.891,0,10.667,4.776,10.667,10.667C106.667,336.558,101.891,341.333,96,341.333z"/>
</g>
<g>
</g>
<g>
</g>
<g>
</g>
<g>
</g>
<g>
</g>
<g>
</g>
<g>
</g>
<g>
</g>
<g>
</g>
<g>
</g>
<g>
</g>
<g>
</g>
<g>
</g>
<g>
</g>
<g>
</g>
</svg>
