<?xml version="1.0" encoding="iso-8859-1"?>
<!-- Generator: Adobe Illustrator 19.0.0, SVG Export Plug-In . SVG Version: 6.00 Build 0)  -->
<svg version="1.1" id="Capa_1" xmlns="http://www.w3.org/2000/svg" xmlns:xlink="http://www.w3.org/1999/xlink" x="0px" y="0px"
	 viewBox="0 0 490.667 490.667" style="enable-background:new 0 0 490.667 490.667;" xml:space="preserve">
<path style="fill:#FFC107;" d="M10.667,128H480c5.891,0,10.667,4.776,10.667,10.667V480c0,5.891-4.776,10.667-10.667,10.667H10.667
	C4.776,490.667,0,485.891,0,480V138.667C0,132.776,4.776,128,10.667,128z"/>
<path style="fill:#455A64;" d="M373.333,213.333c-5.891,0-10.667-4.776-10.667-10.667v-128c0-29.455-23.878-53.333-53.333-53.333
	h-128C151.878,21.333,128,45.211,128,74.667v128c0,5.891-4.776,10.667-10.667,10.667s-10.667-4.776-10.667-10.667v-128
	C106.667,33.429,140.096,0,181.333,0h128C350.571,0,384,33.429,384,74.667v128C384,208.558,379.224,213.333,373.333,213.333z"/>
<circle style="fill:#F44336;" cx="245.333" cy="309.333" r="117.333"/>
<g>
	<path style="fill:#FAFAFA;" d="M266.667,362.667h-64c-5.891,0-10.667-4.776-10.667-10.667v-85.333
		c0-5.891,4.776-10.667,10.667-10.667h64c17.673,0.012,31.99,14.349,31.978,32.022c-0.005,7.864-2.906,15.45-8.149,21.311
		c11.782,13.173,10.655,33.403-2.518,45.185C282.117,359.76,274.53,362.661,266.667,362.667z M213.333,341.333h53.333
		c5.891,0,10.667-4.776,10.667-10.667c0-5.891-4.776-10.667-10.667-10.667h-53.333V341.333z M213.333,298.667h53.333
		c5.891,0,10.667-4.776,10.667-10.667c0-5.891-4.776-10.667-10.667-10.667h-53.333V298.667z"/>
	<path style="fill:#FAFAFA;" d="M224,277.333c-5.891,0-10.667-4.776-10.667-10.667v-21.333c0-5.891,4.776-10.667,10.667-10.667
		c5.891,0,10.667,4.776,10.667,10.667v21.333C234.667,272.558,229.891,277.333,224,277.333z"/>
	<path style="fill:#FAFAFA;" d="M224,384c-5.891,0-10.667-4.776-10.667-10.667V352c0-5.891,4.776-10.667,10.667-10.667
		c5.891,0,10.667,4.776,10.667,10.667v21.333C234.667,379.224,229.891,384,224,384z"/>
	<path style="fill:#FAFAFA;" d="M266.667,277.333c-5.891,0-10.667-4.776-10.667-10.667v-21.333c0-5.891,4.776-10.667,10.667-10.667
		c5.891,0,10.667,4.776,10.667,10.667v21.333C277.333,272.558,272.558,277.333,266.667,277.333z"/>
	<path style="fill:#FAFAFA;" d="M266.667,384c-5.891,0-10.667-4.776-10.667-10.667V352c0-5.891,4.776-10.667,10.667-10.667
		c5.891,0,10.667,4.776,10.667,10.667v21.333C277.333,379.224,272.558,384,266.667,384z"/>
</g>
<g>
</g>
<g>
</g>
<g>
</g>
<g>
</g>
<g>
</g>
<g>
</g>
<g>
</g>
<g>
</g>
<g>
</g>
<g>
</g>
<g>
</g>
<g>
</g>
<g>
</g>
<g>
</g>
<g>
</g>
</svg>
