<?xml version="1.0" encoding="iso-8859-1"?>
<!-- Generator: Adobe Illustrator 19.0.0, SVG Export Plug-In . SVG Version: 6.00 Build 0)  -->
<svg version="1.1" id="Capa_1" xmlns="http://www.w3.org/2000/svg" xmlns:xlink="http://www.w3.org/1999/xlink" x="0px" y="0px"
	 viewBox="0 0 490.667 490.667" style="enable-background:new 0 0 490.667 490.667;" xml:space="preserve">
<path style="fill:#FFC107;" d="M10.667,128H480c5.891,0,10.667,4.776,10.667,10.667V480c0,5.891-4.776,10.667-10.667,10.667H10.667
	C4.776,490.667,0,485.891,0,480V138.667C0,132.776,4.776,128,10.667,128z"/>
<path style="fill:#455A64;" d="M373.333,213.333c-5.891,0-10.667-4.776-10.667-10.667v-128c0-29.455-23.878-53.333-53.333-53.333
	h-128C151.878,21.333,128,45.211,128,74.667v128c0,5.891-4.776,10.667-10.667,10.667s-10.667-4.776-10.667-10.667v-128
	C106.667,33.429,140.096,0,181.333,0h128C350.571,0,384,33.429,384,74.667v128C384,208.558,379.224,213.333,373.333,213.333z"/>
<circle style="fill:#F44336;" cx="245.333" cy="309.333" r="117.333"/>
<path style="fill:#FAFAFA;" d="M288,298.667h-32v-32c0-5.891-4.776-10.667-10.667-10.667c-5.891,0-10.667,4.776-10.667,10.667v32
	h-32c-5.891,0-10.667,4.776-10.667,10.667S196.776,320,202.667,320h32v32c0,5.891,4.776,10.667,10.667,10.667
	c5.891,0,10.667-4.776,10.667-10.667v-32h32c5.891,0,10.667-4.776,10.667-10.667S293.891,298.667,288,298.667z"/>
<g>
</g>
<g>
</g>
<g>
</g>
<g>
</g>
<g>
</g>
<g>
</g>
<g>
</g>
<g>
</g>
<g>
</g>
<g>
</g>
<g>
</g>
<g>
</g>
<g>
</g>
<g>
</g>
<g>
</g>
</svg>
